<?xml version="1.0" standalone="no"?>
<!DOCTYPE svg PUBLIC "-//W3C//DTD SVG 20010904//EN"
 "http://www.w3.org/TR/2001/REC-SVG-20010904/DTD/svg10.dtd">
<svg version="1.0" xmlns="http://www.w3.org/2000/svg"
 width="1500.000000pt" height="1500.000000pt" viewBox="0 0 1500.000000 1500.000000"
 preserveAspectRatio="xMidYMid meet">
<metadata>
Created by potrace 1.14, written by Peter Selinger 2001-2017
</metadata>
<g transform="translate(0.000000,1500.000000) scale(0.100000,-0.100000)"
fill="#000000" stroke="none">
<path d="M5845 14975 c-203 -36 -367 -161 -458 -347 -38 -78 -46 -94 -102
-233 -20 -49 -45 -109 -56 -132 -10 -24 -19 -45 -19 -48 0 -3 -9 -24 -19 -48
-11 -23 -70 -163 -131 -312 -61 -148 -115 -279 -120 -290 -5 -11 -25 -58 -44
-105 -52 -130 -115 -282 -130 -315 -7 -16 -33 -75 -57 -130 -86 -197 -270
-555 -291 -563 -4 -2 -8 -8 -8 -13 0 -24 -263 -419 -359 -539 -20 -24 -41 -51
-48 -60 -14 -19 -131 -158 -192 -229 -128 -149 -399 -409 -616 -590 -22 -18
-201 -154 -280 -212 -50 -37 -233 -158 -290 -191 -16 -10 -50 -29 -75 -43 -25
-14 -67 -39 -95 -55 -79 -47 -493 -250 -510 -250 -2 0 -39 -16 -82 -36 -43
-20 -91 -42 -108 -49 -16 -7 -60 -27 -98 -44 -37 -17 -69 -31 -71 -31 -2 0
-43 -18 -90 -40 -47 -22 -88 -40 -90 -40 -3 0 -33 -13 -68 -29 -35 -16 -165
-74 -289 -129 -125 -56 -248 -111 -275 -123 -27 -11 -71 -31 -99 -44 -27 -12
-99 -44 -160 -70 -238 -105 -354 -214 -426 -399 -37 -96 -47 -160 -43 -274 3
-109 4 -112 34 -202 33 -100 93 -195 169 -267 35 -33 127 -95 171 -115 74 -33
137 -62 535 -238 226 -100 428 -190 450 -200 22 -10 78 -35 125 -55 47 -20
112 -50 145 -65 33 -15 110 -49 170 -75 61 -26 148 -65 193 -86 46 -22 86 -39
89 -39 9 0 323 -160 363 -185 22 -14 42 -25 45 -25 10 0 206 -120 315 -193
431 -288 792 -616 1155 -1048 82 -97 287 -380 352 -484 77 -124 177 -294 206
-349 21 -38 42 -75 48 -82 6 -8 9 -14 5 -14 -3 0 5 -18 19 -40 14 -22 25 -46
25 -54 0 -7 7 -19 15 -26 8 -7 15 -17 15 -22 0 -6 20 -54 44 -107 25 -53 100
-222 167 -376 67 -154 132 -304 145 -333 13 -29 36 -80 50 -115 14 -34 37 -87
51 -117 14 -30 45 -102 70 -160 25 -58 54 -125 65 -150 11 -25 26 -58 33 -75
56 -128 98 -210 126 -247 62 -81 148 -154 222 -190 119 -58 177 -72 312 -71
204 0 391 99 509 268 54 78 99 175 378 825 27 63 56 129 63 145 47 103 105
236 105 239 0 3 16 39 35 80 19 42 35 78 35 81 0 2 15 37 34 77 18 40 46 102
62 138 84 190 258 506 393 710 123 188 327 457 435 575 11 13 51 56 87 97 66
73 242 250 315 319 53 48 304 259 339 284 16 11 33 25 39 31 6 5 65 48 131 95
66 46 125 87 130 92 32 25 231 146 341 208 137 77 529 269 549 269 3 0 38 16
78 36 39 19 74 36 77 36 10 1 46 16 125 53 44 20 127 57 185 82 58 25 138 61
178 79 41 19 75 34 77 34 2 0 34 14 72 32 37 18 70 33 73 33 3 1 21 8 40 17
299 133 380 168 389 168 6 0 11 5 11 10 0 6 5 10 11 10 21 0 261 111 312 144
131 86 226 215 272 371 24 80 29 258 9 344 -34 147 -115 275 -238 379 -30 25
-120 74 -206 111 -132 58 -187 83 -223 101 -22 11 -43 20 -47 20 -5 0 -44 16
-87 36 -101 46 -182 82 -288 129 -16 7 -55 24 -85 38 -30 14 -89 39 -130 57
-41 18 -103 45 -137 61 -34 16 -89 40 -122 53 -32 14 -92 41 -132 59 -41 19
-130 59 -199 90 -259 114 -523 251 -666 343 -33 20 -68 42 -79 48 -24 13 -198
129 -205 136 -3 3 -36 28 -75 55 -99 69 -318 247 -426 346 -160 145 -383 374
-469 480 -19 24 -61 75 -93 113 -78 94 -71 86 -163 211 -82 112 -184 261 -184
268 0 3 -18 31 -39 63 -60 89 -168 283 -248 444 -62 126 -89 183 -158 345 -22
49 -80 192 -134 325 -28 69 -58 139 -66 155 -7 17 -46 109 -85 205 -39 96 -77
189 -84 205 -8 17 -39 93 -71 170 -31 77 -68 164 -81 193 -13 29 -24 54 -24
57 0 23 -102 234 -136 282 -94 132 -246 230 -404 259 -64 12 -164 11 -235 -1z"/>
<path d="M12147 5449 c-104 -24 -190 -101 -243 -217 -19 -39 -34 -75 -34 -78
0 -3 -6 -20 -14 -37 -8 -18 -27 -61 -42 -97 -14 -36 -31 -76 -37 -90 -6 -14
-11 -27 -11 -30 -7 -34 -154 -340 -212 -440 -54 -94 -179 -275 -257 -373 -97
-123 -330 -357 -447 -450 -80 -64 -270 -198 -315 -223 -11 -6 -44 -25 -72 -42
-83 -50 -199 -105 -432 -208 -343 -151 -394 -178 -439 -229 -105 -120 -123
-284 -45 -426 53 -98 60 -102 498 -297 355 -158 455 -211 645 -341 84 -57 166
-117 180 -131 3 -3 34 -29 70 -59 116 -97 295 -284 413 -431 33 -40 157 -218
157 -224 0 -4 11 -22 24 -39 52 -69 150 -261 249 -487 169 -387 184 -410 294
-465 50 -25 70 -29 148 -29 78 -1 98 3 147 26 62 29 133 95 160 149 20 41 52
114 106 239 41 96 88 201 144 318 100 213 319 530 482 700 287 300 544 489
881 652 160 77 253 120 260 120 3 0 44 18 91 40 47 22 87 40 89 40 3 0 104 45
191 86 45 21 119 97 142 146 37 76 48 179 28 264 -11 49 -48 114 -88 156 -50
50 -89 71 -443 226 -243 108 -284 127 -400 193 -317 179 -605 420 -825 689
-25 30 -55 66 -67 80 -13 14 -23 28 -23 32 0 3 -6 13 -13 20 -17 17 -101 141
-163 243 -75 121 -172 324 -279 585 -118 287 -120 290 -173 344 -81 82 -213
121 -325 95z"/>
</g>
</svg>
